G04 ================== begin FILE IDENTIFICATION RECORD ==================*
G04 Layout Name:  E:/Dropbox/Projects/Museum/Bicycle_ver2/allegro/bicycle.brd*
G04 Film Name:    BOTTOM*
G04 File Format:  Gerber RS274X*
G04 File Origin:  Cadence Allegro 16.6-2015-S061*
G04 Origin Date:  Wed May 31 17:03:46 2017*
G04 *
G04 Layer:  ETCH/BOTTOM*
G04 Layer:  PIN/BOTTOM*
G04 Layer:  VIA CLASS/BOTTOM*
G04 *
G04 Offset:    (0.000 0.000)*
G04 Mirror:    No*
G04 Mode:      Positive*
G04 Rotation:  0*
G04 FullContactRelief:  No*
G04 UndefLineWidth:     10.000*
G04 ================== end FILE IDENTIFICATION RECORD ====================*
%FSLAX25Y25*MOIN*%
%IR0*IPPOS*OFA0.00000B0.00000*MIA0B0*SFA1.00000B1.00000*%
%ADD13O,.15748X.070866*%
%ADD12O,.086614X.145669*%
%ADD11C,.06*%
%ADD15C,.065*%
%ADD10R,.06X.06*%
%ADD16C,.0197*%
%ADD14R,.065X.065*%
%ADD17C,.006*%
%ADD18C,.012*%
%ADD20C,.070004*%
%ADD24C,.081004*%
%ADD22R,.081004X.081004*%
%ADD23C,.075004*%
%ADD21C,.076004*%
%ADD19R,.076004X.076004*%
G75*
%LPD*%
G75*
G36*
G01X-96425Y-96425D02*
Y96425D01*
X96425D01*
Y59784D01*
G02X95689Y59566I-400J0D01*
G03Y55434I-3189J-2066D01*
G02X96425Y55216I336J-217D01*
G01Y39784D01*
G02X95689Y39566I-400J0D01*
G03Y35434I-3189J-2066D01*
G02X96425Y35216I336J-217D01*
G01Y29784D01*
G02X95689Y29566I-400J0D01*
G03Y25434I-3189J-2066D01*
G02X96425Y25216I336J-217D01*
G01Y19784D01*
G02X95689Y19566I-400J0D01*
G03Y15434I-3189J-2066D01*
G02X96425Y15216I336J-217D01*
G01Y9784D01*
G02X95689Y9566I-400J0D01*
G03Y5434I-3189J-2066D01*
G02X96425Y5216I336J-217D01*
G01Y-216D01*
G02X95689Y-434I-400J0D01*
G03Y-4566I-3189J-2066D01*
G02X96425Y-4784I336J-217D01*
G01Y-10216D01*
G02X95689Y-10434I-400J0D01*
G03Y-14566I-3189J-2066D01*
G02X96425Y-14784I336J-217D01*
G01Y-20216D01*
G02X95689Y-20434I-400J0D01*
G03Y-24566I-3189J-2066D01*
G02X96425Y-24784I336J-217D01*
G01Y-30216D01*
G02X95689Y-30434I-400J0D01*
G03Y-34566I-3189J-2066D01*
G02X96425Y-34784I336J-217D01*
G01Y-40216D01*
G02X95689Y-40434I-400J0D01*
G03Y-44566I-3189J-2066D01*
G02X96425Y-44784I336J-217D01*
G01Y-50216D01*
G02X95689Y-50434I-400J0D01*
G03Y-54566I-3189J-2066D01*
G02X96425Y-54784I336J-217D01*
G01Y-60216D01*
G02X95689Y-60434I-400J0D01*
G03Y-64566I-3189J-2066D01*
G02X96425Y-64784I336J-217D01*
G01Y-70216D01*
G02X95689Y-70434I-400J0D01*
G03Y-74566I-3189J-2066D01*
G02X96425Y-74784I336J-217D01*
G01Y-80216D01*
G02X95689Y-80434I-400J0D01*
G03Y-84566I-3189J-2066D01*
G02X96425Y-84784I336J-217D01*
G01Y-96425D01*
X-96425D01*
G37*
%LPC*%
G75*
G36*
G01X-37866Y77047D02*
G02X-47528I-4831J0D01*
G01Y82953D01*
G02X-37866I4831J0D01*
G01Y77047D01*
G37*
G36*
G01X-58839Y57546D02*
G02Y66233I0J4344D01*
G01X-50177D01*
G02Y57546I0J-4343D01*
G01X-58839D01*
G37*
G36*
G01X-62669Y77047D02*
G02X-72331I-4831J0D01*
G01Y82953D01*
G02X-62669I4831J0D01*
G01Y77047D01*
G37*
G36*
G01X68964Y56300D02*
X61036D01*
G02Y58700I-1036J1200D01*
G01X68964D01*
G02Y56300I1036J-1200D01*
G37*
G36*
G01X63182Y53700D02*
X68964D01*
G02Y51300I1036J-1200D01*
G01X62188D01*
X61688Y51800D01*
X61036D01*
G02Y54200I-1036J1200D01*
G01X62682D01*
X63182Y53700D01*
G37*
G54D20*
X-78750Y-65000D03*
Y-45000D03*
Y-25000D03*
Y11250D03*
Y31250D03*
X-42500Y-77500D03*
Y-46250D03*
X-38750Y31250D03*
X-22500Y-77500D03*
Y-46250D03*
X-2500Y-77500D03*
Y-46250D03*
X5000Y7500D03*
X32500Y27500D03*
X92500Y47500D03*
G54D24*
X60000Y80000D03*
X70000D03*
X80000D03*
G54D22*
X50000D03*
G54D23*
Y90000D03*
X60000D03*
X70000D03*
X80000D03*
G54D21*
X-38750Y11250D03*
Y21250D03*
X-15000Y67500D03*
Y77500D03*
X5000Y17500D03*
X12500Y77500D03*
X32500Y-82500D03*
Y-72500D03*
Y-62500D03*
Y-52500D03*
Y-42500D03*
Y-32500D03*
Y-22500D03*
Y-12500D03*
Y-2500D03*
Y7500D03*
Y17500D03*
Y37500D03*
Y47500D03*
G54D19*
X-78750Y-75000D03*
Y-55000D03*
Y-35000D03*
Y1250D03*
Y21250D03*
X-38750Y1250D03*
X-32500Y-77500D03*
Y-46250D03*
X-15000Y87500D03*
X-12500Y-77500D03*
Y-46250D03*
X7500Y-77500D03*
Y-46250D03*
X5000Y27500D03*
X12500Y87500D03*
X32500Y57500D03*
%LPD*%
G75*
G54D10*
X-78750Y-75000D03*
Y-55000D03*
Y-35000D03*
Y1250D03*
Y21250D03*
X-38750Y1250D03*
X-32500Y-77500D03*
Y-46250D03*
X-15000Y87500D03*
X-12500Y-77500D03*
Y-46250D03*
X7500Y-77500D03*
Y-46250D03*
X5000Y27500D03*
X12500Y87500D03*
X32500Y57500D03*
G54D11*
X-78750Y-65000D03*
Y-45000D03*
Y-25000D03*
Y11250D03*
Y31250D03*
X-42500Y-77500D03*
Y-46250D03*
X-38750Y11250D03*
Y21250D03*
Y31250D03*
X-22500Y-77500D03*
Y-46250D03*
X-15000Y67500D03*
Y77500D03*
X-2500Y-77500D03*
Y-46250D03*
X5000Y7500D03*
Y17500D03*
X12500Y77500D03*
X32500Y-82500D03*
Y-72500D03*
Y-62500D03*
Y-52500D03*
Y-42500D03*
Y-32500D03*
Y-22500D03*
Y-12500D03*
Y-2500D03*
Y7500D03*
Y17500D03*
Y27500D03*
Y37500D03*
Y47500D03*
X92500Y-82500D03*
Y-72500D03*
Y-62500D03*
Y-52500D03*
Y-42500D03*
Y-32500D03*
Y-22500D03*
Y-12500D03*
Y-2500D03*
Y7500D03*
Y17500D03*
Y27500D03*
Y37500D03*
Y47500D03*
Y57500D03*
G54D12*
X-67500Y80000D03*
X-42697D03*
G54D13*
X-54508Y61890D03*
G54D14*
X50000Y80000D03*
G54D15*
Y90000D03*
X60000Y80000D03*
Y90000D03*
X70000Y80000D03*
Y90000D03*
X80000Y80000D03*
Y90000D03*
G54D16*
X60000Y53000D03*
Y57500D03*
X70000Y52500D03*
Y57500D03*
G54D17*
G01X-82450Y-65000D02*
X-78750D01*
G01X-82450Y-45000D02*
X-78750D01*
G01X-82450Y-25000D02*
X-78750D01*
G01X-82450Y11250D02*
X-78750D01*
G01X-82450Y31250D02*
X-78750D01*
G01Y-68700D02*
Y-65000D01*
G01D02*
Y-61300D01*
G01Y-65000D02*
X-75050D01*
G01X-78750Y-48700D02*
Y-45000D01*
G01D02*
Y-41300D01*
G01Y-45000D02*
X-75050D01*
G01X-78750Y-28700D02*
Y-25000D01*
G01D02*
Y-21300D01*
G01Y-25000D02*
X-75050D01*
G01X-78750Y7550D02*
Y11250D01*
G01D02*
Y14950D01*
G01Y11250D02*
X-75050D01*
G01X-78750Y27550D02*
Y31250D01*
G01D02*
Y34950D01*
G01Y31250D02*
X-75050D01*
G01X-72531Y80000D02*
X-67500D01*
G01Y72016D02*
Y80000D01*
G01D02*
Y87984D01*
G01Y80000D02*
X-62469D01*
G01X-42500Y-81200D02*
Y-77500D01*
G01D02*
Y-73800D01*
G01X-46200Y-77500D02*
X-42500D01*
G01D02*
X-38800D01*
G01X-42500Y-49950D02*
Y-46250D01*
G01D02*
Y-42550D01*
G01X-46200Y-46250D02*
X-42500D01*
G01D02*
X-38800D01*
G01X-42450Y31250D02*
X-38750D01*
G01X-42697Y72016D02*
Y80000D01*
G01D02*
Y87984D01*
G01X-47728Y80000D02*
X-42697D01*
G01D02*
X-37666D01*
G01X-38750Y27550D02*
Y31250D01*
G01D02*
Y34950D01*
G01Y31250D02*
X-35050D01*
G01X-26200Y-77500D02*
X-22500D01*
G01X-26200Y-46250D02*
X-22500D01*
G01Y-81200D02*
Y-77500D01*
G01D02*
Y-73800D01*
G01Y-77500D02*
X-18800D01*
G01X-22500Y-49950D02*
Y-46250D01*
G01D02*
Y-42550D01*
G01Y-46250D02*
X-18800D01*
G01X-6200Y-77500D02*
X-2500D01*
G01X-6200Y-46250D02*
X-2500D01*
G01Y-81200D02*
Y-77500D01*
G01D02*
Y-73800D01*
G01Y-77500D02*
X1200D01*
G01X-2500Y-49950D02*
Y-46250D01*
G01D02*
Y-42550D01*
G01Y-46250D02*
X1200D01*
G01X5000Y3800D02*
Y7500D01*
G01D02*
Y11200D01*
G01X1300Y7500D02*
X5000D01*
G01D02*
X8700D01*
G01X32500Y23800D02*
Y27500D01*
G01D02*
Y31200D01*
G01X28800Y27500D02*
X32500D01*
G01D02*
X36200D01*
G01X50000Y86050D02*
Y90000D01*
G01D02*
Y93950D01*
G01X46050Y90000D02*
X50000D01*
G01D02*
X53950D01*
G01X56050D02*
X60000D01*
G01X66050D02*
X70000D01*
G01X60000Y86050D02*
Y90000D01*
G01D02*
Y93950D01*
G01Y90000D02*
X63950D01*
G01X70000Y86050D02*
Y90000D01*
G01D02*
Y93950D01*
G01Y90000D02*
X73950D01*
G01X80000Y86050D02*
Y90000D01*
G01D02*
Y93950D01*
G01X76050Y90000D02*
X80000D01*
G01D02*
X83950D01*
G01X88800Y47500D02*
X92500D01*
G01Y43800D02*
Y47500D01*
G01D02*
Y51200D01*
G54D18*
G01X70000Y52500D02*
X62685D01*
X62185Y53000D01*
X60000D01*
G01X70000Y57500D02*
X60000D01*
M02*
