M48
INCH
T01C.012
T02C.04
T03C.118
;LEADER: 12 
;HEADER: 
;CODE  : ASCII 
;FILE  : bicycle-1-2.drl for  ... layers TOP and BOTTOM
;DESIGN: bicycle.brd
;T01 Holesize 1. = 12.000000 Tolerance = +0.000000/-0.000000 PLATED MILS Quantity = 6
;T02 Holesize 2. = 40.000000 Tolerance = +0.000000/-0.000000 PLATED MILS Quantity = 72
;T03 Holesize 3. = 118.000000 Tolerance = +0.000000/-0.000000 NON_PLATED MILS Quantity = 2
%
G90
T01
X0047500Y0057500
X0053750Y0063750
X0041250Y0061250
X0048750Y0068750
X0040000Y0002500
X0040000Y0013000
T02
X-0032500Y-0077500
X-0042500Y-0077500
X-0012500Y-0077500
X-0022500Y-0077500
X0007500Y-0077500
X-0002500Y-0077500
X-0078750Y-0075000
X-0078750Y-0065000
X-0032500Y-0046250
X-0042500Y-0046250
X-0012500Y-0046250
X-0022500Y-0046250
X0007500Y-0046250
X-0002500Y-0046250
X-0041250Y0001250
R03Y0010000
X-0078750Y0027500
X-0078750Y0037500
X-0078750Y-0002500
X-0078750Y0007500
X-0078750Y-0035000
X-0078750Y-0025000
X-0078750Y-0055000
X-0078750Y-0045000
X-0016998Y0032500
R03Y-0010000
X0014498Y0002500
R03Y0010000
X-0015000Y0087500
R02Y-0010000
X0052500Y0083750
R02X0010000
X0012500Y0087500
X0012500Y0077500
X0032500Y0057500
R14Y-0010000
X0092500Y-0082500
R14Y0010000
T03
X-0031250Y0048750
X0063750Y-0041250
M30
