M48
INCH
T01C.012
T02C.04
T03C.045
T04C.045
;LEADER: 12 
;HEADER: 
;CODE  : ASCII 
;FILE  : bicycle-1-2.drl for  ... layers TOP and BOTTOM
;DESIGN: bicycle.brd
;T01 Holesize 1. = 12.000000 Tolerance = +0.000000/-0.000000 PLATED MILS Quantity = 4
;T02 Holesize 2. = 40.000000 Tolerance = +0.000000/-0.000000 PLATED MILS Quantity = 64
;T03 Holesize 3. = 45.000000 Tolerance = +0.000000/-0.000000 PLATED MILS Quantity = 1
;T04 Holesize 4. = 45.000000 Tolerance = +2.000000/-2.000000 PLATED MILS Quantity = 7
%
G90
T01
X0060000Y0057500
X0070000Y0057500
X0060000Y0053000
X0070000Y0052500
T02
X-0032500Y-0077500
X-0042500Y-0077500
X-0078750Y-0075000
X-0078750Y-0065000
X-0032500Y-0046250
X-0042500Y-0046250
X-0038750Y0001250
R03Y0010000
X-0078750Y0021250
X-0078750Y0031250
X-0078750Y0001250
X-0078750Y0011250
X-0078750Y-0035000
X-0078750Y-0025000
X-0078750Y-0055000
X-0078750Y-0045000
X-0015000Y0087500
R02Y-0010000
X0012500Y0087500
X0012500Y0077500
X-0012500Y-0046250
X-0022500Y-0046250
X0007500Y-0046250
X-0002500Y-0046250
X0005000Y0027500
R02Y-0010000
X0032500Y0057500
R14Y-0010000
X0092500Y-0082500
R14Y0010000
X-0012500Y-0077500
X-0022500Y-0077500
X0007500Y-0077500
X-0002500Y-0077500
T03
X0050000Y0080000
T04
X0050000Y0090000
X0060000Y0080000
X0060000Y0090000
X0070000Y0080000
X0070000Y0090000
X0080000Y0080000
X0080000Y0090000
M30
