G04 ================== begin FILE IDENTIFICATION RECORD ==================*
G04 Layout Name:  E:/Dropbox/Projects/Museum/Bicycle_ver2/pcb/allegro/bicycle.brd*
G04 Film Name:    SILK_BOT*
G04 File Format:  Gerber RS274X*
G04 File Origin:  Cadence Allegro 16.6-2015-S061*
G04 Origin Date:  Thu Jul 27 22:38:12 2017*
G04 *
G04 Layer:  REF DES/SILKSCREEN_BOTTOM*
G04 Layer:  PACKAGE GEOMETRY/SILKSCREEN_BOTTOM*
G04 Layer:  BOARD GEOMETRY/SILKSCREEN_BOTTOM*
G04 *
G04 Offset:    (0.000 0.000)*
G04 Mirror:    No*
G04 Mode:      Positive*
G04 Rotation:  0*
G04 FullContactRelief:  No*
G04 UndefLineWidth:     8.000*
G04 ================== end FILE IDENTIFICATION RECORD ====================*
%FSLAX25Y25*MOIN*%
%IR0*IPPOS*OFA0.00000B0.00000*MIA0B0*SFA1.00000B1.00000*%
%ADD10C,.005*%
%ADD11C,.006102*%
G75*
%LPD*%
G75*
G54D10*
G01X-68514Y-75000D02*
Y-80000D01*
X-91348D01*
Y-75000D01*
G01Y-65000D02*
Y-60000D01*
X-68514D01*
Y-65000D01*
G01Y-55000D02*
Y-60000D01*
X-91348D01*
Y-55000D01*
G01Y-45000D02*
Y-40000D01*
X-68514D01*
Y-45000D01*
G01Y-35000D02*
Y-40000D01*
X-91348D01*
Y-35000D01*
G01Y-25000D02*
Y-20000D01*
X-68514D01*
Y-25000D01*
G01Y-2500D02*
Y-7500D01*
X-91348D01*
Y-2500D01*
G01Y7500D02*
Y12500D01*
X-68514D01*
Y7500D01*
G01Y27500D02*
Y22500D01*
X-91348D01*
Y27500D01*
G01Y37500D02*
Y42500D01*
X-68514D01*
Y37500D01*
G01X-31014Y1250D02*
Y-3750D01*
X-53848D01*
Y1250D01*
G01Y31250D02*
Y36250D01*
X-31014D01*
Y31250D01*
G01X-42500Y-90098D02*
X-47500D01*
Y-67264D01*
X-42500D01*
G01Y-58848D02*
X-47500D01*
Y-36014D01*
X-42500D01*
G01X-22500Y-90098D02*
X-27500D01*
Y-67264D01*
X-22500D01*
G01X-32500D02*
X-27500D01*
Y-90098D01*
X-32500D01*
G01X-22500Y-58848D02*
X-27500D01*
Y-36014D01*
X-22500D01*
G01X-32500D02*
X-27500D01*
Y-58848D01*
X-32500D01*
G01X-9600Y67450D02*
Y61950D01*
X-20600D01*
Y67450D01*
G01X-20500Y73300D02*
Y83300D01*
G01Y87500D02*
Y93000D01*
X-9500D01*
G01X-12500Y-67264D02*
X-7500D01*
Y-90098D01*
X-12500D01*
G01Y-36014D02*
X-7500D01*
Y-58848D01*
X-12500D01*
G01X-2500Y-90098D02*
X-7500D01*
Y-67264D01*
X-2500D01*
G01Y-58848D02*
X-7500D01*
Y-36014D01*
X-2500D01*
G01X-9600Y83600D02*
Y73600D01*
G01X-9500Y93000D02*
Y87500D01*
G01X7500Y-67264D02*
X12500D01*
Y-90098D01*
X7500D01*
G01Y-36014D02*
X12500D01*
Y-58848D01*
X7500D01*
G01X17900Y77450D02*
Y71950D01*
X6900D01*
Y77450D01*
G01X7000Y87500D02*
Y93000D01*
X18000D01*
G01D02*
Y87500D01*
G01X52500Y78250D02*
X47000D01*
Y89250D01*
G01D02*
X52500D01*
G01X66700Y78250D02*
X56700D01*
G01X56400Y89150D02*
X66400D01*
G01X72550D02*
X78050D01*
Y78150D01*
X72550D01*
G54D11*
G01X7254Y49180D02*
X7096Y49337D01*
X6978Y49600D01*
X6900Y49967D01*
X6978Y50282D01*
X7136Y50492D01*
X7411Y50650D01*
X8474D01*
Y47500D01*
X7175D01*
X6900Y47710D01*
X6742Y48025D01*
X6663Y48392D01*
X6742Y48760D01*
X6978Y49075D01*
X7254Y49180D01*
X8474D01*
G01X4400Y47500D02*
Y50650D01*
G01X1230Y47500D02*
X1466Y47552D01*
X1703Y47762D01*
X1860Y48130D01*
X1939Y48550D01*
X1860Y48970D01*
X1703Y49337D01*
X1466Y49547D01*
X1230Y49600D01*
X994Y49547D01*
X758Y49337D01*
X600Y48970D01*
X561Y48550D01*
X600Y48130D01*
X758Y47762D01*
X994Y47552D01*
X1230Y47500D01*
G01X-1939D02*
X-1703Y47552D01*
X-1467Y47762D01*
X-1309Y48130D01*
X-1230Y48550D01*
X-1309Y48970D01*
X-1467Y49337D01*
X-1703Y49547D01*
X-1939Y49600D01*
X-2175Y49547D01*
X-2411Y49337D01*
X-2569Y48970D01*
X-2608Y48550D01*
X-2569Y48130D01*
X-2411Y47762D01*
X-2175Y47552D01*
X-1939Y47500D01*
G01X-3927D02*
Y49600D01*
G01Y49022D02*
X-4045Y49285D01*
X-4242Y49495D01*
X-4518Y49600D01*
X-4793Y49495D01*
X-4990Y49285D01*
X-5108Y49022D01*
Y47500D01*
G01Y49022D02*
X-5226Y49285D01*
X-5423Y49495D01*
X-5699Y49600D01*
X-5974Y49495D01*
X-6171Y49285D01*
X-6289Y48970D01*
Y47500D01*
G01X-8041D02*
Y50177D01*
X-8120Y50440D01*
X-8278Y50597D01*
X-8514Y50650D01*
X-8750Y50545D01*
X-8868Y50282D01*
G01X-8396Y49390D02*
X-7608D01*
G01X-11447Y49600D02*
Y47500D01*
G01Y50440D02*
X-11368Y50492D01*
Y50597D01*
X-11447Y50650D01*
X-11526Y50597D01*
Y50492D01*
X-11447Y50440D01*
G01X-14026Y48917D02*
X-15285D01*
X-15167Y49285D01*
X-14971Y49495D01*
X-14695Y49600D01*
X-14419Y49547D01*
X-14183Y49390D01*
X-14026Y49022D01*
X-13947Y48707D01*
Y48392D01*
X-14026Y48077D01*
X-14222Y47762D01*
X-14459Y47552D01*
X-14734Y47500D01*
X-15010Y47605D01*
X-15285Y47920D01*
G01X-17786Y47500D02*
Y50650D01*
G01X-21664D02*
Y47500D01*
G01Y47972D02*
X-21506Y47710D01*
X-21270Y47552D01*
X-20994Y47500D01*
X-20679Y47605D01*
X-20443Y47867D01*
X-20286Y48182D01*
X-20246Y48550D01*
X-20286Y48917D01*
X-20443Y49232D01*
X-20679Y49495D01*
X-20994Y49600D01*
X-21270Y49547D01*
X-21467Y49442D01*
X-21664Y49232D01*
G01X-26467Y47920D02*
X-26782Y47657D01*
X-27136Y47500D01*
X-27451D01*
X-27766Y47657D01*
X-28002Y47920D01*
X-28120Y48287D01*
X-28042Y48655D01*
X-27845Y48970D01*
X-27490Y49180D01*
X-27018Y49285D01*
X-26742Y49495D01*
X-26624Y49862D01*
X-26703Y50230D01*
X-26900Y50492D01*
X-27175Y50650D01*
X-27451D01*
X-27726Y50545D01*
X-27963Y50282D01*
G01X-31093Y49337D02*
X-30817Y49547D01*
X-30581Y49600D01*
X-30266Y49495D01*
X-30030Y49285D01*
X-29872Y48917D01*
X-29833Y48550D01*
X-29872Y48182D01*
X-30030Y47867D01*
X-30266Y47605D01*
X-30581Y47500D01*
X-30856Y47605D01*
X-31093Y47815D01*
G01X-33632Y49600D02*
Y47500D01*
G01Y50440D02*
X-33553Y50492D01*
Y50597D01*
X-33632Y50650D01*
X-33711Y50597D01*
Y50492D01*
X-33632Y50440D01*
G01X-36211Y48917D02*
X-37471D01*
X-37352Y49285D01*
X-37156Y49495D01*
X-36880Y49600D01*
X-36604Y49547D01*
X-36368Y49390D01*
X-36211Y49022D01*
X-36132Y48707D01*
Y48392D01*
X-36211Y48077D01*
X-36408Y47762D01*
X-36644Y47552D01*
X-36919Y47500D01*
X-37195Y47605D01*
X-37471Y47920D01*
G01X-39301Y47500D02*
Y49600D01*
G01Y49075D02*
X-39459Y49337D01*
X-39695Y49547D01*
X-40010Y49600D01*
X-40286Y49547D01*
X-40522Y49337D01*
X-40640Y48970D01*
Y47500D01*
G01X-43770Y49337D02*
X-43494Y49547D01*
X-43258Y49600D01*
X-42943Y49495D01*
X-42707Y49285D01*
X-42549Y48917D01*
X-42510Y48550D01*
X-42549Y48182D01*
X-42707Y47867D01*
X-42943Y47605D01*
X-43258Y47500D01*
X-43534Y47605D01*
X-43770Y47815D01*
G01X-45719Y48917D02*
X-46978D01*
X-46860Y49285D01*
X-46664Y49495D01*
X-46388Y49600D01*
X-46112Y49547D01*
X-45876Y49390D01*
X-45719Y49022D01*
X-45640Y48707D01*
Y48392D01*
X-45719Y48077D01*
X-45916Y47762D01*
X-46152Y47552D01*
X-46427Y47500D01*
X-46703Y47605D01*
X-46978Y47920D01*
G01X-51624Y47500D02*
Y50650D01*
X-52648Y48025D01*
X-53672Y50650D01*
Y47500D01*
G01X-55148Y49600D02*
Y48130D01*
X-55305Y47762D01*
X-55542Y47552D01*
X-55817Y47500D01*
X-56093Y47552D01*
X-56329Y47762D01*
X-56486Y48130D01*
G01Y47500D02*
Y49600D01*
G01X-58396Y47867D02*
X-58593Y47657D01*
X-58868Y47500D01*
X-59104D01*
X-59341Y47605D01*
X-59498Y47762D01*
X-59577Y47972D01*
X-59538Y48287D01*
X-59380Y48445D01*
X-58671Y48760D01*
X-58514Y49127D01*
X-58593Y49390D01*
X-58750Y49547D01*
X-58986Y49600D01*
X-59223Y49547D01*
X-59459Y49390D01*
G01X-61565Y48917D02*
X-62825D01*
X-62707Y49285D01*
X-62510Y49495D01*
X-62235Y49600D01*
X-61959Y49547D01*
X-61723Y49390D01*
X-61565Y49022D01*
X-61486Y48707D01*
Y48392D01*
X-61565Y48077D01*
X-61762Y47762D01*
X-61998Y47552D01*
X-62274Y47500D01*
X-62549Y47605D01*
X-62825Y47920D01*
G01X-64656Y49600D02*
Y48130D01*
X-64813Y47762D01*
X-65049Y47552D01*
X-65325Y47500D01*
X-65601Y47552D01*
X-65837Y47762D01*
X-65994Y48130D01*
G01Y47500D02*
Y49600D01*
G01X-67313Y47500D02*
Y49600D01*
G01Y49022D02*
X-67431Y49285D01*
X-67628Y49495D01*
X-67904Y49600D01*
X-68179Y49495D01*
X-68376Y49285D01*
X-68494Y49022D01*
Y47500D01*
G01Y49022D02*
X-68612Y49285D01*
X-68809Y49495D01*
X-69085Y49600D01*
X-69360Y49495D01*
X-69557Y49285D01*
X-69675Y48970D01*
Y47500D01*
M02*
