G04 ================== begin FILE IDENTIFICATION RECORD ==================*
G04 Layout Name:  E:/Dropbox/Projects/Museum/Bicycle_ver2/allegro/bicycle.brd*
G04 Film Name:    SILK_TOP*
G04 File Format:  Gerber RS274X*
G04 File Origin:  Cadence Allegro 16.6-2015-S061*
G04 Origin Date:  Wed May 31 17:03:46 2017*
G04 *
G04 Layer:  REF DES/SILKSCREEN_TOP*
G04 Layer:  PACKAGE GEOMETRY/SILKSCREEN_TOP*
G04 Layer:  BOARD GEOMETRY/SILKSCREEN_TOP*
G04 *
G04 Offset:    (0.000 0.000)*
G04 Mirror:    No*
G04 Mode:      Positive*
G04 Rotation:  0*
G04 FullContactRelief:  No*
G04 UndefLineWidth:     8.000*
G04 ================== end FILE IDENTIFICATION RECORD ====================*
%FSLAX25Y25*MOIN*%
%IR0*IPPOS*OFA0.00000B0.00000*MIA0B0*SFA1.00000B1.00000*%
%ADD10C,.005*%
%ADD11C,.006*%
%ADD12C,.006102*%
%ADD13C,.004921*%
%ADD14C,.007874*%
G75*
%LPD*%
G75*
G54D10*
G01X-68514Y-80000D02*
X-91348D01*
Y-60000D01*
X-68514D01*
Y-80000D01*
G01Y-60000D02*
X-91348D01*
Y-40000D01*
X-68514D01*
Y-60000D01*
G01Y-40000D02*
X-91348D01*
Y-20000D01*
X-68514D01*
Y-40000D01*
G01Y-3750D02*
X-91348D01*
Y16250D01*
X-68514D01*
Y-3750D01*
G01Y16250D02*
X-91348D01*
Y36250D01*
X-68514D01*
Y16250D01*
G01X-27500Y-67264D02*
Y-90098D01*
X-47500D01*
Y-67264D01*
X-27500D01*
G01Y-36014D02*
Y-58848D01*
X-47500D01*
Y-36014D01*
X-27500D01*
G01X-7500Y-67264D02*
Y-90098D01*
X-27500D01*
Y-67264D01*
X-7500D01*
G01Y-36014D02*
Y-58848D01*
X-27500D01*
Y-36014D01*
X-7500D01*
G01X-9500Y93000D02*
Y62000D01*
X-20500D01*
Y93000D01*
X-9500D01*
G01X12500Y-67264D02*
Y-90098D01*
X-7500D01*
Y-67264D01*
X12500D01*
G01Y-36014D02*
Y-58848D01*
X-7500D01*
Y-36014D01*
X12500D01*
G01X10500Y33000D02*
Y2000D01*
X-500D01*
Y33000D01*
X10500D01*
G01X18000Y93000D02*
Y72000D01*
X7000D01*
Y93000D01*
X18000D01*
G54D11*
G01X-92500Y-82500D02*
X-56250D01*
G01X-73750Y-18750D02*
X-67500D01*
X-63750Y-22500D01*
Y-77500D01*
X-67500Y-81250D01*
X-73750D01*
G01Y37500D02*
X-68750D01*
X-63750Y32500D01*
Y0D01*
X-68750Y-5000D01*
X-73750D01*
G01X-55000Y-88750D02*
X-51250D01*
X-53750Y-86250D01*
G01X-51250Y-88750D02*
X-53750Y-91250D01*
G01X-52500Y-76250D02*
Y-35000D01*
X-47500Y-30000D01*
X12500D01*
X17500Y-35000D01*
Y-76250D01*
G01X-25000Y62500D02*
Y58750D01*
X-20000Y53750D01*
X13750D01*
X25000Y65000D01*
Y73750D01*
G01X27500Y-97500D02*
X97500D01*
Y72500D01*
X27500D01*
Y-97500D01*
G01X35000Y95000D02*
X82500D01*
X85000Y92500D01*
Y87500D01*
X82500Y85000D01*
X28750D01*
Y95000D01*
X35000D01*
G01X44500Y95500D02*
X85500D01*
Y74500D01*
X44500D01*
Y95500D01*
X45000D01*
G54D12*
G01X-92375Y-74183D02*
X-92060Y-74419D01*
X-91903Y-74695D01*
X-91850Y-75010D01*
X-91955Y-75404D01*
X-92218Y-75679D01*
X-92533Y-75758D01*
X-92848Y-75718D01*
X-93110Y-75561D01*
X-93635Y-74774D01*
X-94003Y-74419D01*
X-94528Y-74183D01*
X-95000Y-74104D01*
Y-75758D01*
G01X-93425Y-65167D02*
Y-65955D01*
X-94370D01*
X-94685Y-65718D01*
X-94895Y-65443D01*
X-95000Y-65049D01*
X-94895Y-64656D01*
X-94685Y-64380D01*
X-94370Y-64144D01*
X-94003Y-63986D01*
X-93583Y-63907D01*
X-93215D01*
X-92900Y-63986D01*
X-92533Y-64144D01*
X-92218Y-64380D01*
X-92008Y-64616D01*
X-91850Y-64931D01*
Y-65207D01*
X-91955Y-65522D01*
X-92165Y-65758D01*
G01X-95000Y-54931D02*
X-91850D01*
X-92480Y-54459D01*
G01X-95000D02*
Y-55403D01*
G01X-93425Y-45167D02*
Y-45955D01*
X-94370D01*
X-94685Y-45718D01*
X-94895Y-45443D01*
X-95000Y-45049D01*
X-94895Y-44656D01*
X-94685Y-44380D01*
X-94370Y-44144D01*
X-94003Y-43986D01*
X-93583Y-43907D01*
X-93215D01*
X-92900Y-43986D01*
X-92533Y-44144D01*
X-92218Y-44380D01*
X-92008Y-44616D01*
X-91850Y-44931D01*
Y-45207D01*
X-91955Y-45522D01*
X-92165Y-45758D01*
G01X-91850Y-34931D02*
X-91955Y-34616D01*
X-92218Y-34380D01*
X-92533Y-34222D01*
X-92953Y-34104D01*
X-93425Y-34065D01*
X-93898Y-34104D01*
X-94318Y-34222D01*
X-94633Y-34380D01*
X-94895Y-34616D01*
X-95000Y-34931D01*
X-94895Y-35246D01*
X-94633Y-35482D01*
X-94318Y-35640D01*
X-93898Y-35758D01*
X-93425Y-35797D01*
X-92953Y-35758D01*
X-92533Y-35640D01*
X-92218Y-35482D01*
X-91955Y-35246D01*
X-91850Y-34931D01*
G01X-93425Y-25167D02*
Y-25955D01*
X-94370D01*
X-94685Y-25718D01*
X-94895Y-25443D01*
X-95000Y-25049D01*
X-94895Y-24656D01*
X-94685Y-24380D01*
X-94370Y-24144D01*
X-94003Y-23986D01*
X-93583Y-23907D01*
X-93215D01*
X-92900Y-23986D01*
X-92533Y-24144D01*
X-92218Y-24380D01*
X-92008Y-24616D01*
X-91850Y-24931D01*
Y-25207D01*
X-91955Y-25522D01*
X-92165Y-25758D01*
G01X-95000Y1319D02*
X-91850D01*
X-92480Y1791D01*
G01X-95000D02*
Y846D01*
G01X-93425Y11083D02*
Y10295D01*
X-94370D01*
X-94685Y10532D01*
X-94895Y10807D01*
X-95000Y11201D01*
X-94895Y11594D01*
X-94685Y11870D01*
X-94370Y12106D01*
X-94003Y12264D01*
X-93583Y12343D01*
X-93215D01*
X-92900Y12264D01*
X-92533Y12106D01*
X-92218Y11870D01*
X-92008Y11634D01*
X-91850Y11319D01*
Y11043D01*
X-91955Y10728D01*
X-92165Y10492D01*
G01X-91850Y21319D02*
X-91955Y21634D01*
X-92218Y21870D01*
X-92533Y22028D01*
X-92953Y22146D01*
X-93425Y22185D01*
X-93898Y22146D01*
X-94318Y22028D01*
X-94633Y21870D01*
X-94895Y21634D01*
X-95000Y21319D01*
X-94895Y21004D01*
X-94633Y20768D01*
X-94318Y20610D01*
X-93898Y20492D01*
X-93425Y20453D01*
X-92953Y20492D01*
X-92533Y20610D01*
X-92218Y20768D01*
X-91955Y21004D01*
X-91850Y21319D01*
G01X-93425Y31083D02*
Y30295D01*
X-94370D01*
X-94685Y30532D01*
X-94895Y30807D01*
X-95000Y31201D01*
X-94895Y31594D01*
X-94685Y31870D01*
X-94370Y32106D01*
X-94003Y32264D01*
X-93583Y32343D01*
X-93215D01*
X-92900Y32264D01*
X-92533Y32106D01*
X-92218Y31870D01*
X-92008Y31634D01*
X-91850Y31319D01*
Y31043D01*
X-91955Y30728D01*
X-92165Y30492D01*
G01X-92106Y-93120D02*
X-91909Y-93435D01*
X-91673Y-93645D01*
X-91398Y-93750D01*
X-91083Y-93645D01*
X-90847Y-93435D01*
X-90610Y-93120D01*
X-90532Y-92700D01*
Y-90600D01*
G01X-88150Y-93750D02*
Y-90600D01*
X-88622Y-91230D01*
G01Y-93750D02*
X-87677D01*
G01X-85846Y-93120D02*
X-85610Y-93488D01*
X-85295Y-93698D01*
X-84941Y-93750D01*
X-84626Y-93698D01*
X-84311Y-93435D01*
X-84114Y-93120D01*
X-84075Y-92805D01*
X-84154Y-92438D01*
X-84429Y-92175D01*
X-84705Y-92070D01*
X-85059D01*
G01X-84705D02*
X-84468Y-91913D01*
X-84272Y-91650D01*
X-84193Y-91335D01*
X-84272Y-91020D01*
X-84468Y-90758D01*
X-84823Y-90600D01*
X-85177Y-90653D01*
X-85532Y-90863D01*
G01X-92106Y-86870D02*
X-91909Y-87185D01*
X-91673Y-87395D01*
X-91398Y-87500D01*
X-91083Y-87395D01*
X-90847Y-87185D01*
X-90610Y-86870D01*
X-90532Y-86450D01*
Y-84350D01*
G01X-88150Y-87500D02*
Y-84350D01*
X-88622Y-84980D01*
G01Y-87500D02*
X-87677D01*
G01X-84980Y-84350D02*
X-85295Y-84455D01*
X-85532Y-84718D01*
X-85689Y-85033D01*
X-85807Y-85453D01*
X-85846Y-85925D01*
X-85807Y-86398D01*
X-85689Y-86818D01*
X-85532Y-87133D01*
X-85295Y-87395D01*
X-84980Y-87500D01*
X-84665Y-87395D01*
X-84429Y-87133D01*
X-84272Y-86818D01*
X-84154Y-86398D01*
X-84114Y-85925D01*
X-84154Y-85453D01*
X-84272Y-85033D01*
X-84429Y-84718D01*
X-84665Y-84455D01*
X-84980Y-84350D01*
G01X-80856Y-93120D02*
X-80659Y-93435D01*
X-80423Y-93645D01*
X-80148Y-93750D01*
X-79833Y-93645D01*
X-79596Y-93435D01*
X-79360Y-93120D01*
X-79282Y-92700D01*
Y-90600D01*
G01X-76900Y-93750D02*
Y-90600D01*
X-77372Y-91230D01*
G01Y-93750D02*
X-76427D01*
G01X-73258D02*
Y-90600D01*
X-74715Y-92858D01*
X-72746D01*
G01X-79606Y-86870D02*
X-79409Y-87185D01*
X-79173Y-87395D01*
X-78898Y-87500D01*
X-78583Y-87395D01*
X-78347Y-87185D01*
X-78110Y-86870D01*
X-78032Y-86450D01*
Y-84350D01*
G01X-75650Y-87500D02*
Y-84350D01*
X-76122Y-84980D01*
G01Y-87500D02*
X-75177D01*
G01X-72480D02*
Y-84350D01*
X-72953Y-84980D01*
G01Y-87500D02*
X-72008D01*
G01X-72106Y58130D02*
X-71909Y57815D01*
X-71673Y57605D01*
X-71398Y57500D01*
X-71083Y57605D01*
X-70846Y57815D01*
X-70610Y58130D01*
X-70532Y58550D01*
Y60650D01*
G01X-68898Y60125D02*
X-68661Y60440D01*
X-68386Y60597D01*
X-68071Y60650D01*
X-67677Y60545D01*
X-67402Y60282D01*
X-67323Y59967D01*
X-67362Y59652D01*
X-67520Y59390D01*
X-68307Y58865D01*
X-68661Y58497D01*
X-68898Y57972D01*
X-68976Y57500D01*
X-67323D01*
G01X-64980D02*
Y60650D01*
X-65453Y60020D01*
G01Y57500D02*
X-64508D01*
G01X-67106Y-93120D02*
X-66909Y-93435D01*
X-66673Y-93645D01*
X-66398Y-93750D01*
X-66083Y-93645D01*
X-65847Y-93435D01*
X-65610Y-93120D01*
X-65532Y-92700D01*
Y-90600D01*
G01X-63150Y-93750D02*
Y-90600D01*
X-63622Y-91230D01*
G01Y-93750D02*
X-62677D01*
G01X-60846Y-93278D02*
X-60610Y-93540D01*
X-60335Y-93698D01*
X-59980Y-93750D01*
X-59626Y-93645D01*
X-59350Y-93435D01*
X-59154Y-93068D01*
X-59114Y-92648D01*
X-59193Y-92228D01*
X-59390Y-91965D01*
X-59665Y-91755D01*
X-59941Y-91703D01*
X-60216Y-91755D01*
X-60571Y-91965D01*
X-60453Y-90600D01*
X-59390D01*
G01X-67106Y-86870D02*
X-66909Y-87185D01*
X-66673Y-87395D01*
X-66398Y-87500D01*
X-66083Y-87395D01*
X-65847Y-87185D01*
X-65610Y-86870D01*
X-65532Y-86450D01*
Y-84350D01*
G01X-63150Y-87500D02*
Y-84350D01*
X-63622Y-84980D01*
G01Y-87500D02*
X-62677D01*
G01X-60728Y-84875D02*
X-60492Y-84560D01*
X-60216Y-84403D01*
X-59902Y-84350D01*
X-59508Y-84455D01*
X-59232Y-84718D01*
X-59154Y-85033D01*
X-59193Y-85348D01*
X-59350Y-85610D01*
X-60138Y-86135D01*
X-60492Y-86503D01*
X-60728Y-87028D01*
X-60807Y-87500D01*
X-59154D01*
G01X-66870Y-66644D02*
X-67185Y-66841D01*
X-67395Y-67077D01*
X-67500Y-67352D01*
X-67395Y-67667D01*
X-67185Y-67904D01*
X-66870Y-68140D01*
X-66450Y-68218D01*
X-64350D01*
G01X-67133Y-69931D02*
X-67395Y-70207D01*
X-67500Y-70522D01*
X-67395Y-70837D01*
X-67080Y-71112D01*
X-66608Y-71309D01*
X-66135Y-71388D01*
X-65558D01*
X-65085Y-71309D01*
X-64665Y-71112D01*
X-64455Y-70876D01*
X-64350Y-70600D01*
X-64455Y-70285D01*
X-64665Y-70049D01*
X-64980Y-69892D01*
X-65400Y-69813D01*
X-65768Y-69892D01*
X-66135Y-70089D01*
X-66345Y-70325D01*
X-66398Y-70600D01*
X-66293Y-70915D01*
X-66030Y-71152D01*
X-65558Y-71388D01*
G01X-66870Y-46644D02*
X-67185Y-46841D01*
X-67395Y-47077D01*
X-67500Y-47352D01*
X-67395Y-47667D01*
X-67185Y-47904D01*
X-66870Y-48140D01*
X-66450Y-48218D01*
X-64350D01*
G01X-67500Y-50600D02*
X-67448Y-50876D01*
X-67290Y-51191D01*
X-67028Y-51388D01*
X-66660Y-51466D01*
X-66293Y-51388D01*
X-65978Y-51152D01*
X-65820Y-50797D01*
Y-50404D01*
X-65715Y-50167D01*
X-65453Y-49970D01*
X-65085Y-49892D01*
X-64718Y-50010D01*
X-64455Y-50285D01*
X-64350Y-50600D01*
X-64455Y-50915D01*
X-64718Y-51191D01*
X-65085Y-51309D01*
X-65453Y-51230D01*
X-65715Y-51034D01*
X-65820Y-50797D01*
Y-50404D01*
X-65978Y-50049D01*
X-66293Y-49813D01*
X-66660Y-49734D01*
X-67028Y-49813D01*
X-67290Y-50010D01*
X-67448Y-50325D01*
X-67500Y-50600D01*
G01X-66870Y-27894D02*
X-67185Y-28091D01*
X-67395Y-28327D01*
X-67500Y-28602D01*
X-67395Y-28917D01*
X-67185Y-29154D01*
X-66870Y-29390D01*
X-66450Y-29469D01*
X-64350D01*
G01X-67500Y-31772D02*
X-66818Y-31850D01*
X-66240Y-31968D01*
X-65715Y-32126D01*
X-65138Y-32323D01*
X-64350Y-32638D01*
Y-31063D01*
G01X-66787Y9406D02*
X-67102Y9209D01*
X-67312Y8973D01*
X-67416Y8698D01*
X-67312Y8383D01*
X-67102Y8147D01*
X-66787Y7910D01*
X-66367Y7832D01*
X-64267D01*
G01X-66104Y6198D02*
X-65737Y5922D01*
X-65527Y5686D01*
X-65422Y5371D01*
X-65527Y5095D01*
X-65737Y4898D01*
X-66052Y4741D01*
X-66419Y4702D01*
X-66734Y4741D01*
X-67049Y4898D01*
X-67312Y5135D01*
X-67416Y5410D01*
X-67312Y5725D01*
X-66997Y6001D01*
X-66524Y6158D01*
X-65999Y6198D01*
X-65317Y6119D01*
X-64949Y6001D01*
X-64582Y5804D01*
X-64319Y5528D01*
X-64267Y5253D01*
X-64372Y4977D01*
X-64634Y4780D01*
G01X-66787Y29406D02*
X-67102Y29209D01*
X-67312Y28973D01*
X-67416Y28698D01*
X-67312Y28383D01*
X-67102Y28146D01*
X-66787Y27910D01*
X-66367Y27831D01*
X-64267D01*
G01X-66944Y26316D02*
X-67207Y26080D01*
X-67364Y25804D01*
X-67416Y25450D01*
X-67312Y25095D01*
X-67102Y24820D01*
X-66734Y24623D01*
X-66314Y24584D01*
X-65894Y24662D01*
X-65632Y24859D01*
X-65422Y25135D01*
X-65369Y25410D01*
X-65422Y25686D01*
X-65632Y26040D01*
X-64267Y25922D01*
Y24859D01*
G01X-60820Y-47746D02*
X-60663Y-47904D01*
X-60400Y-48022D01*
X-60033Y-48100D01*
X-59718Y-48022D01*
X-59508Y-47864D01*
X-59350Y-47589D01*
Y-46526D01*
X-62500D01*
Y-47825D01*
X-62290Y-48100D01*
X-61975Y-48258D01*
X-61608Y-48337D01*
X-61240Y-48258D01*
X-60925Y-48022D01*
X-60820Y-47746D01*
Y-46526D01*
G01X-59350Y-50600D02*
X-62500D01*
G01X-59350Y-49695D02*
Y-51506D01*
G01X-62500Y-52864D02*
X-59350D01*
X-62500Y-54675D01*
X-59350D01*
G01X-55778Y4685D02*
X-56040Y4449D01*
X-56198Y4173D01*
X-56250Y3819D01*
X-56145Y3464D01*
X-55935Y3189D01*
X-55568Y2992D01*
X-55148Y2953D01*
X-54728Y3032D01*
X-54465Y3228D01*
X-54255Y3504D01*
X-54203Y3780D01*
X-54255Y4055D01*
X-54465Y4409D01*
X-53100Y4291D01*
Y3228D01*
G01Y1634D02*
X-56250Y650D01*
X-53100Y-335D01*
G01Y-2520D02*
X-53205Y-2205D01*
X-53468Y-1968D01*
X-53783Y-1811D01*
X-54203Y-1693D01*
X-54675Y-1654D01*
X-55148Y-1693D01*
X-55568Y-1811D01*
X-55883Y-1968D01*
X-56145Y-2205D01*
X-56250Y-2520D01*
X-56145Y-2835D01*
X-55883Y-3071D01*
X-55568Y-3228D01*
X-55148Y-3346D01*
X-54675Y-3386D01*
X-54203Y-3346D01*
X-53783Y-3228D01*
X-53468Y-3071D01*
X-53205Y-2835D01*
X-53100Y-2520D01*
G01X-59350Y20856D02*
X-62500D01*
Y19282D01*
G01Y16900D02*
X-62448Y17215D01*
X-62238Y17490D01*
X-61923Y17726D01*
X-61555Y17884D01*
X-61135Y17963D01*
X-60715D01*
X-60295Y17884D01*
X-59928Y17726D01*
X-59613Y17490D01*
X-59403Y17215D01*
X-59350Y16900D01*
X-59403Y16585D01*
X-59613Y16309D01*
X-59928Y16073D01*
X-60295Y15915D01*
X-60715Y15837D01*
X-61135D01*
X-61555Y15915D01*
X-61923Y16073D01*
X-62238Y16309D01*
X-62448Y16585D01*
X-62500Y16900D01*
G01Y14715D02*
X-59350Y13730D01*
X-62500Y12746D01*
G01X-61398Y13100D02*
Y14360D01*
G01X-62500Y11427D02*
X-59350D01*
Y10640D01*
X-59508Y10325D01*
X-59718Y10089D01*
X-60033Y9892D01*
X-60400Y9734D01*
X-60925Y9695D01*
X-61450Y9734D01*
X-61818Y9892D01*
X-62133Y10089D01*
X-62343Y10325D01*
X-62500Y10640D01*
Y11427D01*
G01X-54675Y31083D02*
Y30295D01*
X-55620D01*
X-55935Y30532D01*
X-56145Y30807D01*
X-56250Y31201D01*
X-56145Y31594D01*
X-55935Y31870D01*
X-55620Y32106D01*
X-55253Y32264D01*
X-54833Y32343D01*
X-54465D01*
X-54150Y32264D01*
X-53783Y32106D01*
X-53468Y31870D01*
X-53258Y31634D01*
X-53100Y31319D01*
Y31043D01*
X-53205Y30728D01*
X-53415Y30492D01*
G01X-51850Y11319D02*
X-51955Y11634D01*
X-52218Y11870D01*
X-52533Y12028D01*
X-52953Y12146D01*
X-53425Y12185D01*
X-53898Y12146D01*
X-54318Y12028D01*
X-54633Y11870D01*
X-54895Y11634D01*
X-55000Y11319D01*
X-54895Y11004D01*
X-54633Y10768D01*
X-54318Y10610D01*
X-53898Y10492D01*
X-53425Y10453D01*
X-52953Y10492D01*
X-52533Y10610D01*
X-52218Y10768D01*
X-51955Y11004D01*
X-51850Y11319D01*
G01X-55000Y21319D02*
X-51850D01*
X-52480Y21791D01*
G01X-55000D02*
Y20846D01*
G01X-42333Y-93425D02*
X-41545D01*
Y-94370D01*
X-41782Y-94685D01*
X-42057Y-94895D01*
X-42451Y-95000D01*
X-42844Y-94895D01*
X-43120Y-94685D01*
X-43356Y-94370D01*
X-43514Y-94003D01*
X-43593Y-93583D01*
Y-93215D01*
X-43514Y-92900D01*
X-43356Y-92533D01*
X-43120Y-92218D01*
X-42884Y-92008D01*
X-42569Y-91850D01*
X-42293D01*
X-41978Y-91955D01*
X-41742Y-92165D01*
G01X-42333Y-62175D02*
X-41545D01*
Y-63120D01*
X-41782Y-63435D01*
X-42057Y-63645D01*
X-42451Y-63750D01*
X-42844Y-63645D01*
X-43120Y-63435D01*
X-43356Y-63120D01*
X-43514Y-62753D01*
X-43593Y-62333D01*
Y-61965D01*
X-43514Y-61650D01*
X-43356Y-61283D01*
X-43120Y-60968D01*
X-42884Y-60758D01*
X-42569Y-60600D01*
X-42293D01*
X-41978Y-60705D01*
X-41742Y-60915D01*
G01X-44606Y-8120D02*
X-44409Y-8435D01*
X-44173Y-8645D01*
X-43898Y-8750D01*
X-43583Y-8645D01*
X-43346Y-8435D01*
X-43110Y-8120D01*
X-43032Y-7700D01*
Y-5600D01*
G01X-40650Y-8750D02*
Y-5600D01*
X-41122Y-6230D01*
G01Y-8750D02*
X-40177D01*
G01X-37559D02*
X-37480Y-8068D01*
X-37362Y-7490D01*
X-37205Y-6965D01*
X-37008Y-6388D01*
X-36693Y-5600D01*
X-38268D01*
G01X-33435Y-94370D02*
X-33199Y-94738D01*
X-32884Y-94948D01*
X-32530Y-95000D01*
X-32214Y-94948D01*
X-31900Y-94685D01*
X-31703Y-94370D01*
X-31663Y-94055D01*
X-31742Y-93688D01*
X-32018Y-93425D01*
X-32293Y-93320D01*
X-32648D01*
G01X-32293D02*
X-32057Y-93163D01*
X-31860Y-92900D01*
X-31782Y-92585D01*
X-31860Y-92270D01*
X-32057Y-92008D01*
X-32411Y-91850D01*
X-32766Y-91903D01*
X-33120Y-92113D01*
G01X-32569Y-60600D02*
X-32884Y-60705D01*
X-33120Y-60968D01*
X-33278Y-61283D01*
X-33396Y-61703D01*
X-33435Y-62175D01*
X-33396Y-62648D01*
X-33278Y-63068D01*
X-33120Y-63383D01*
X-32884Y-63645D01*
X-32569Y-63750D01*
X-32254Y-63645D01*
X-32018Y-63383D01*
X-31860Y-63068D01*
X-31742Y-62648D01*
X-31703Y-62175D01*
X-31742Y-61703D01*
X-31860Y-61283D01*
X-32018Y-60968D01*
X-32254Y-60705D01*
X-32569Y-60600D01*
G01X-27500Y24282D02*
Y25856D01*
X-24350D01*
Y24282D01*
G01X-25873Y24911D02*
Y25856D01*
G01X-27500Y22805D02*
X-24350D01*
X-27500Y20994D01*
X-24350D01*
G01X-24613Y17864D02*
X-24455Y18100D01*
X-24350Y18376D01*
Y18691D01*
X-24508Y19045D01*
X-24770Y19321D01*
X-25085Y19518D01*
X-25610Y19675D01*
X-26083Y19715D01*
X-26555Y19636D01*
X-26870Y19518D01*
X-27185Y19282D01*
X-27395Y19006D01*
X-27500Y18730D01*
Y18455D01*
X-27395Y18179D01*
X-27238Y17943D01*
X-27028Y17746D01*
G01X-27500Y15561D02*
X-27448Y15876D01*
X-27238Y16152D01*
X-26923Y16388D01*
X-26555Y16545D01*
X-26135Y16624D01*
X-25715D01*
X-25295Y16545D01*
X-24928Y16388D01*
X-24613Y16152D01*
X-24403Y15876D01*
X-24350Y15561D01*
X-24403Y15246D01*
X-24613Y14970D01*
X-24928Y14734D01*
X-25295Y14577D01*
X-25715Y14498D01*
X-26135D01*
X-26555Y14577D01*
X-26923Y14734D01*
X-27238Y14970D01*
X-27448Y15246D01*
X-27500Y15561D01*
G01Y13258D02*
X-24350D01*
Y12470D01*
X-24508Y12156D01*
X-24718Y11919D01*
X-25033Y11722D01*
X-25400Y11565D01*
X-25925Y11526D01*
X-26450Y11565D01*
X-26818Y11722D01*
X-27133Y11919D01*
X-27343Y12156D01*
X-27500Y12470D01*
Y13258D01*
G01Y8435D02*
Y10010D01*
X-24350D01*
Y8435D01*
G01X-25873Y9065D02*
Y10010D01*
G01X-27500Y6841D02*
X-24350D01*
Y5856D01*
X-24508Y5541D01*
X-24718Y5344D01*
X-25138Y5266D01*
X-25558Y5344D01*
X-25820Y5581D01*
X-25978Y5856D01*
Y6841D01*
G01Y5856D02*
X-27500Y5266D01*
G01X-29291Y69400D02*
X-28346D01*
G01X-28819D02*
Y66250D01*
G01X-29291D02*
X-28346D01*
G01X-26555D02*
Y69400D01*
X-24744Y66250D01*
Y69400D01*
G01X-22480D02*
Y66250D01*
G01X-23386Y69400D02*
X-21575D01*
G01X-28031Y76250D02*
X-29606D01*
Y79400D01*
X-28031D01*
G01X-28661Y77877D02*
X-29606D01*
G01X-26555Y76250D02*
Y79400D01*
X-24744Y76250D01*
Y79400D01*
G01X-21614Y79137D02*
X-21850Y79295D01*
X-22126Y79400D01*
X-22441D01*
X-22795Y79242D01*
X-23071Y78980D01*
X-23268Y78665D01*
X-23425Y78140D01*
X-23465Y77667D01*
X-23386Y77195D01*
X-23268Y76880D01*
X-23032Y76565D01*
X-22756Y76355D01*
X-22480Y76250D01*
X-22205D01*
X-21929Y76355D01*
X-21693Y76512D01*
X-21496Y76722D01*
G01X-28031Y86250D02*
X-29606D01*
Y89400D01*
X-28031D01*
G01X-28661Y87877D02*
X-29606D01*
G01X-26476Y86250D02*
X-24823Y89400D01*
G01X-26476D02*
X-24823Y86250D01*
G01X-22480Y89400D02*
Y86250D01*
G01X-23386Y89400D02*
X-21575D01*
G01X-22333Y-93425D02*
X-21545D01*
Y-94370D01*
X-21782Y-94685D01*
X-22057Y-94895D01*
X-22451Y-95000D01*
X-22844Y-94895D01*
X-23120Y-94685D01*
X-23356Y-94370D01*
X-23514Y-94003D01*
X-23593Y-93583D01*
Y-93215D01*
X-23514Y-92900D01*
X-23356Y-92533D01*
X-23120Y-92218D01*
X-22884Y-92008D01*
X-22569Y-91850D01*
X-22293D01*
X-21978Y-91955D01*
X-21742Y-92165D01*
G01X-22333Y-62175D02*
X-21545D01*
Y-63120D01*
X-21782Y-63435D01*
X-22057Y-63645D01*
X-22451Y-63750D01*
X-22844Y-63645D01*
X-23120Y-63435D01*
X-23356Y-63120D01*
X-23514Y-62753D01*
X-23593Y-62333D01*
Y-61965D01*
X-23514Y-61650D01*
X-23356Y-61283D01*
X-23120Y-60968D01*
X-22884Y-60758D01*
X-22569Y-60600D01*
X-22293D01*
X-21978Y-60705D01*
X-21742Y-60915D01*
G01X-24646Y-27080D02*
X-24331Y-27343D01*
X-23976Y-27500D01*
X-23661D01*
X-23346Y-27343D01*
X-23110Y-27080D01*
X-22992Y-26713D01*
X-23071Y-26345D01*
X-23268Y-26030D01*
X-23622Y-25820D01*
X-24094Y-25715D01*
X-24370Y-25505D01*
X-24488Y-25138D01*
X-24409Y-24770D01*
X-24213Y-24508D01*
X-23937Y-24350D01*
X-23661D01*
X-23386Y-24455D01*
X-23150Y-24718D01*
G01X-21437Y-27500D02*
Y-24350D01*
X-20492D01*
X-20177Y-24508D01*
X-19941Y-24875D01*
X-19862Y-25295D01*
X-19941Y-25715D01*
X-20138Y-26030D01*
X-20492Y-26188D01*
X-21437D01*
G01X-18465Y-27500D02*
X-17480Y-24350D01*
X-16496Y-27500D01*
G01X-16850Y-26398D02*
X-18110D01*
G01X-15098Y-27500D02*
Y-24350D01*
X-14114D01*
X-13799Y-24508D01*
X-13602Y-24718D01*
X-13524Y-25138D01*
X-13602Y-25558D01*
X-13839Y-25820D01*
X-14114Y-25978D01*
X-15098D01*
G01X-14114D02*
X-13524Y-27500D01*
G01X-10354D02*
X-11929D01*
Y-24350D01*
X-10354D01*
G01X-10984Y-25873D02*
X-11929D01*
G01X-16782Y57500D02*
X-18356D01*
Y60650D01*
X-16782D01*
G01X-17411Y59127D02*
X-18356D01*
G01X-15305Y57500D02*
Y60650D01*
X-13494Y57500D01*
Y60650D01*
G01X-10364Y60387D02*
X-10600Y60545D01*
X-10876Y60650D01*
X-11191D01*
X-11545Y60492D01*
X-11821Y60230D01*
X-12018Y59915D01*
X-12175Y59390D01*
X-12215Y58917D01*
X-12136Y58445D01*
X-12018Y58130D01*
X-11782Y57815D01*
X-11506Y57605D01*
X-11230Y57500D01*
X-10955D01*
X-10679Y57605D01*
X-10443Y57762D01*
X-10246Y57972D01*
G01X-12096Y-95000D02*
Y-91850D01*
X-13553Y-94108D01*
X-11585D01*
G01X-12569Y-63750D02*
Y-60600D01*
X-13041Y-61230D01*
G01Y-63750D02*
X-12096D01*
G01X-15856Y47500D02*
Y50650D01*
X-14911D01*
X-14597Y50492D01*
X-14360Y50125D01*
X-14282Y49705D01*
X-14360Y49285D01*
X-14557Y48970D01*
X-14911Y48812D01*
X-15856D01*
G01X-11900Y47500D02*
X-12215Y47552D01*
X-12490Y47762D01*
X-12726Y48077D01*
X-12884Y48445D01*
X-12963Y48865D01*
Y49285D01*
X-12884Y49705D01*
X-12726Y50072D01*
X-12490Y50387D01*
X-12215Y50597D01*
X-11900Y50650D01*
X-11585Y50597D01*
X-11309Y50387D01*
X-11073Y50072D01*
X-10915Y49705D01*
X-10837Y49285D01*
Y48865D01*
X-10915Y48445D01*
X-11073Y48077D01*
X-11309Y47762D01*
X-11585Y47552D01*
X-11900Y47500D01*
G01X-9911Y50650D02*
X-9360Y47500D01*
X-8730Y50650D01*
X-8100Y47500D01*
X-7549Y50650D01*
G01X-4774Y47500D02*
X-6348D01*
Y50650D01*
X-4774D01*
G01X-5404Y49127D02*
X-6348D01*
G01X-3179Y47500D02*
Y50650D01*
X-2195D01*
X-1880Y50492D01*
X-1683Y50282D01*
X-1604Y49862D01*
X-1683Y49442D01*
X-1919Y49180D01*
X-2195Y49022D01*
X-3179D01*
G01X-2195D02*
X-1604Y47500D01*
G01X-404Y46450D02*
X1959D01*
G01X3120Y47920D02*
X3435Y47657D01*
X3789Y47500D01*
X4104D01*
X4419Y47657D01*
X4656Y47920D01*
X4774Y48287D01*
X4695Y48655D01*
X4498Y48970D01*
X4144Y49180D01*
X3671Y49285D01*
X3396Y49495D01*
X3278Y49862D01*
X3356Y50230D01*
X3553Y50492D01*
X3829Y50650D01*
X4104D01*
X4380Y50545D01*
X4616Y50282D01*
G01X7904Y47500D02*
X6329D01*
Y50650D01*
X7904D01*
G01X7274Y49127D02*
X6329D01*
G01X9498Y50650D02*
Y47500D01*
X11073D01*
G01X-2333Y-62175D02*
X-1545D01*
Y-63120D01*
X-1782Y-63435D01*
X-2057Y-63645D01*
X-2451Y-63750D01*
X-2844Y-63645D01*
X-3120Y-63435D01*
X-3356Y-63120D01*
X-3514Y-62753D01*
X-3593Y-62333D01*
Y-61965D01*
X-3514Y-61650D01*
X-3356Y-61283D01*
X-3120Y-60968D01*
X-2884Y-60758D01*
X-2569Y-60600D01*
X-2293D01*
X-1978Y-60705D01*
X-1742Y-60915D01*
G01X-3425Y7333D02*
Y6545D01*
X-4370D01*
X-4685Y6782D01*
X-4895Y7057D01*
X-5000Y7451D01*
X-4895Y7844D01*
X-4685Y8120D01*
X-4370Y8356D01*
X-4003Y8514D01*
X-3583Y8593D01*
X-3215D01*
X-2900Y8514D01*
X-2533Y8356D01*
X-2218Y8120D01*
X-2008Y7884D01*
X-1850Y7569D01*
Y7293D01*
X-1955Y6978D01*
X-2165Y6742D01*
G01X-5000Y18356D02*
X-1850D01*
Y17372D01*
X-2008Y17057D01*
X-2218Y16860D01*
X-2638Y16782D01*
X-3058Y16860D01*
X-3320Y17096D01*
X-3478Y17372D01*
Y18356D01*
G01Y17372D02*
X-5000Y16782D01*
G01X-1850Y27569D02*
X-5000D01*
G01X-1850Y28474D02*
Y26663D01*
G01X-6870Y69606D02*
X-7185Y69409D01*
X-7395Y69173D01*
X-7500Y68898D01*
X-7395Y68583D01*
X-7185Y68347D01*
X-6870Y68110D01*
X-6450Y68032D01*
X-4350D01*
G01X-7500Y65650D02*
X-4350D01*
X-4980Y66122D01*
G01X-7500D02*
Y65177D01*
G01X-7133Y63150D02*
X-7395Y62874D01*
X-7500Y62559D01*
X-7395Y62244D01*
X-7080Y61968D01*
X-6608Y61772D01*
X-6135Y61693D01*
X-5558D01*
X-5085Y61772D01*
X-4665Y61968D01*
X-4455Y62205D01*
X-4350Y62480D01*
X-4455Y62795D01*
X-4665Y63032D01*
X-4980Y63189D01*
X-5400Y63268D01*
X-5768Y63189D01*
X-6135Y62992D01*
X-6345Y62756D01*
X-6398Y62480D01*
X-6293Y62165D01*
X-6030Y61929D01*
X-5558Y61693D01*
G01X-1083Y-93425D02*
X-295D01*
Y-94370D01*
X-532Y-94685D01*
X-807Y-94895D01*
X-1201Y-95000D01*
X-1594Y-94895D01*
X-1870Y-94685D01*
X-2106Y-94370D01*
X-2264Y-94003D01*
X-2343Y-93583D01*
Y-93215D01*
X-2264Y-92900D01*
X-2106Y-92533D01*
X-1870Y-92218D01*
X-1634Y-92008D01*
X-1319Y-91850D01*
X-1043D01*
X-728Y-91955D01*
X-492Y-92165D01*
G01X1644Y-1870D02*
X1841Y-2185D01*
X2077Y-2395D01*
X2352Y-2500D01*
X2667Y-2395D01*
X2904Y-2185D01*
X3140Y-1870D01*
X3219Y-1450D01*
Y650D01*
G01X5600Y-2500D02*
Y650D01*
X5128Y20D01*
G01Y-2500D02*
X6073D01*
G01X8770D02*
X9045Y-2448D01*
X9360Y-2290D01*
X9557Y-2028D01*
X9636Y-1660D01*
X9557Y-1293D01*
X9321Y-978D01*
X8966Y-820D01*
X8573D01*
X8337Y-715D01*
X8140Y-453D01*
X8061Y-85D01*
X8179Y282D01*
X8455Y545D01*
X8770Y650D01*
X9085Y545D01*
X9360Y282D01*
X9478Y-85D01*
X9400Y-453D01*
X9203Y-715D01*
X8966Y-820D01*
X8573D01*
X8218Y-978D01*
X7982Y-1293D01*
X7904Y-1660D01*
X7982Y-2028D01*
X8179Y-2290D01*
X8494Y-2448D01*
X8770Y-2500D01*
G01X-2303Y78150D02*
X-1319Y75000D01*
X-335Y78150D01*
G01X1378D02*
X2323D01*
G01X1850D02*
Y75000D01*
G01X1378D02*
X2323D01*
G01X4114D02*
Y78150D01*
X5925Y75000D01*
Y78150D01*
G01X-532Y86250D02*
X-2106D01*
Y89400D01*
X-532D01*
G01X-1161Y87877D02*
X-2106D01*
G01X1024Y86250D02*
X2677Y89400D01*
G01X1024D02*
X2677Y86250D01*
G01X5020Y89400D02*
Y86250D01*
G01X4114Y89400D02*
X5925D01*
G01X6565Y-94528D02*
X6801Y-94790D01*
X7077Y-94948D01*
X7431Y-95000D01*
X7786Y-94895D01*
X8061Y-94685D01*
X8258Y-94318D01*
X8297Y-93898D01*
X8218Y-93478D01*
X8022Y-93215D01*
X7746Y-93005D01*
X7470Y-92953D01*
X7195Y-93005D01*
X6841Y-93215D01*
X6959Y-91850D01*
X8022D01*
G01X6683Y-61125D02*
X6919Y-60810D01*
X7195Y-60653D01*
X7510Y-60600D01*
X7903Y-60705D01*
X8179Y-60968D01*
X8258Y-61283D01*
X8218Y-61598D01*
X8061Y-61860D01*
X7274Y-62385D01*
X6919Y-62753D01*
X6683Y-63278D01*
X6604Y-63750D01*
X8258D01*
G01X14400Y22185D02*
X12142D01*
X11670Y22028D01*
X11355Y21713D01*
X11250Y21319D01*
X11355Y20925D01*
X11670Y20610D01*
X12142Y20453D01*
X14400D01*
G01X11250Y19134D02*
X14400Y18150D01*
X11250Y17165D01*
G01X12352Y17520D02*
Y18780D01*
G01X11250Y15768D02*
X14400D01*
Y14784D01*
X14242Y14468D01*
X14032Y14272D01*
X13612Y14193D01*
X13192Y14272D01*
X12930Y14508D01*
X12772Y14784D01*
Y15768D01*
G01Y14784D02*
X11250Y14193D01*
G01X14400Y11811D02*
X11250D01*
G01X14400Y12716D02*
Y10906D01*
G01X7697Y67500D02*
X8681Y70650D01*
X9665Y67500D01*
G01X9311Y68602D02*
X8051D01*
G01X11063Y67500D02*
Y70650D01*
X12047D01*
X12362Y70492D01*
X12559Y70282D01*
X12638Y69862D01*
X12559Y69442D01*
X12323Y69180D01*
X12047Y69022D01*
X11063D01*
G01X12047D02*
X12638Y67500D01*
G01X14154D02*
Y70650D01*
X14941D01*
X15256Y70492D01*
X15492Y70282D01*
X15689Y69967D01*
X15846Y69600D01*
X15886Y69075D01*
X15846Y68550D01*
X15689Y68182D01*
X15492Y67867D01*
X15256Y67657D01*
X14941Y67500D01*
X14154D01*
G01X21063Y83456D02*
X20748Y83259D01*
X20538Y83023D01*
X20433Y82748D01*
X20538Y82433D01*
X20748Y82196D01*
X21063Y81960D01*
X21483Y81882D01*
X23583D01*
G01X23058Y80248D02*
X23373Y80011D01*
X23530Y79736D01*
X23583Y79421D01*
X23478Y79027D01*
X23215Y78752D01*
X22900Y78673D01*
X22585Y78712D01*
X22323Y78870D01*
X21798Y79657D01*
X21430Y80011D01*
X20905Y80248D01*
X20433Y80326D01*
Y78673D01*
G01X23583Y76330D02*
X23478Y76645D01*
X23215Y76882D01*
X22900Y77039D01*
X22480Y77157D01*
X22008Y77196D01*
X21535Y77157D01*
X21115Y77039D01*
X20800Y76882D01*
X20538Y76645D01*
X20433Y76330D01*
X20538Y76015D01*
X20800Y75779D01*
X21115Y75622D01*
X21535Y75504D01*
X22008Y75464D01*
X22480Y75504D01*
X22900Y75622D01*
X23215Y75779D01*
X23478Y76015D01*
X23583Y76330D01*
G01X35709Y80650D02*
X36654D01*
G01X36181D02*
Y77500D01*
G01X35709D02*
X36654D01*
G01X38484D02*
Y80650D01*
X39272D01*
X39587Y80492D01*
X39823Y80282D01*
X40020Y79967D01*
X40177Y79600D01*
X40217Y79075D01*
X40177Y78550D01*
X40020Y78182D01*
X39823Y77867D01*
X39587Y77657D01*
X39272Y77500D01*
X38484D01*
G01X42520Y80650D02*
X42205Y80545D01*
X41968Y80282D01*
X41811Y79967D01*
X41693Y79547D01*
X41654Y79075D01*
X41693Y78602D01*
X41811Y78182D01*
X41968Y77867D01*
X42205Y77605D01*
X42520Y77500D01*
X42835Y77605D01*
X43071Y77867D01*
X43228Y78182D01*
X43346Y78602D01*
X43386Y79075D01*
X43346Y79547D01*
X43228Y79967D01*
X43071Y80282D01*
X42835Y80545D01*
X42520Y80650D01*
G01X35167Y90325D02*
X35955D01*
Y89380D01*
X35718Y89065D01*
X35443Y88855D01*
X35049Y88750D01*
X34656Y88855D01*
X34380Y89065D01*
X34144Y89380D01*
X33986Y89747D01*
X33907Y90167D01*
Y90535D01*
X33986Y90850D01*
X34144Y91217D01*
X34380Y91532D01*
X34616Y91742D01*
X34931Y91900D01*
X35207D01*
X35522Y91795D01*
X35758Y91585D01*
G01X37195Y88750D02*
Y91900D01*
X39006Y88750D01*
Y91900D01*
G01X40404Y88750D02*
Y91900D01*
X41191D01*
X41506Y91742D01*
X41742Y91532D01*
X41939Y91217D01*
X42096Y90850D01*
X42136Y90325D01*
X42096Y89800D01*
X41939Y89432D01*
X41742Y89117D01*
X41506Y88907D01*
X41191Y88750D01*
X40404D01*
G01X60907Y-15000D02*
Y-11850D01*
X61931Y-14475D01*
X62955Y-11850D01*
Y-15000D01*
G01X65100D02*
Y-11850D01*
X64628Y-12480D01*
G01Y-15000D02*
X65573D01*
G01X86959Y80650D02*
X87904D01*
G01X87431D02*
Y77500D01*
G01X86959D02*
X87904D01*
G01X89734D02*
Y80650D01*
X90522D01*
X90837Y80492D01*
X91073Y80282D01*
X91270Y79967D01*
X91427Y79600D01*
X91466Y79075D01*
X91427Y78550D01*
X91270Y78182D01*
X91073Y77867D01*
X90837Y77657D01*
X90522Y77500D01*
X89734D01*
G01X92904Y78130D02*
X93140Y77762D01*
X93455Y77552D01*
X93809Y77500D01*
X94124Y77552D01*
X94439Y77815D01*
X94636Y78130D01*
X94675Y78445D01*
X94596Y78812D01*
X94321Y79075D01*
X94045Y79180D01*
X93691D01*
G01X94045D02*
X94282Y79337D01*
X94478Y79600D01*
X94557Y79915D01*
X94478Y80230D01*
X94282Y80492D01*
X93927Y80650D01*
X93573Y80597D01*
X93218Y80387D01*
G01X87293Y92630D02*
X87490Y92315D01*
X87726Y92105D01*
X88002Y92000D01*
X88317Y92105D01*
X88553Y92315D01*
X88789Y92630D01*
X88868Y93050D01*
Y95150D01*
G01X90502Y94625D02*
X90738Y94940D01*
X91014Y95097D01*
X91329Y95150D01*
X91722Y95045D01*
X91998Y94782D01*
X92077Y94467D01*
X92037Y94152D01*
X91880Y93890D01*
X91092Y93365D01*
X90738Y92997D01*
X90502Y92472D01*
X90423Y92000D01*
X92077D01*
G01X93671Y94625D02*
X93908Y94940D01*
X94183Y95097D01*
X94498Y95150D01*
X94892Y95045D01*
X95167Y94782D01*
X95246Y94467D01*
X95207Y94152D01*
X95049Y93890D01*
X94262Y93365D01*
X93908Y92997D01*
X93671Y92472D01*
X93592Y92000D01*
X95246D01*
G54D13*
G01X-28514Y-3750D02*
X-51348D01*
Y36250D01*
X-28514D01*
Y-3750D01*
G54D14*
G01X-97028Y61890D02*
Y97323D01*
X-43484D01*
Y61890D01*
X-97028D01*
M02*
